<svg xmlns="http://www.w3.org/2000/svg" viewBox="0 0 694.09 124.41"><defs><style>.cls-1{fill-rule:evenodd;}</style></defs><g id="Layer_2" data-name="Layer 2"><g id="Layer_1-2" data-name="Layer 1"><path id="Path_1" data-name="Path 1" class="cls-1" d="M647,71.88v50H621.15v-50L575.75,3.52V.17H605l29.07,47.18L664.48.17h29.61V3.54ZM432.45,82.4H413.64v39.48H387.78V0h1.8q14,0,28.09.08t28.09.09c30.45.18,44.33,21.35,44.33,40.94s-10.28,33.38-28.33,38.18L496,117.89v4H466.88Zm31.76-40.78c0-7.89-4.83-17.1-18.45-17.1H413.64v34.2h32.12C459.38,58.72,464.21,49.5,464.21,41.62Zm-228.7,82.79c-33,0-54.29-21.44-54.29-54.61V.33h25.72V69.8c0,19.56,10.47,30.77,28.74,30.77,17.19,0,27.06-11.21,27.06-30.77V.33h25.7V69.8C288.44,103.49,268.15,124.41,235.51,124.41ZM25.87,54H85.1V78.18H25.87v43.7H0V.33H88.47v25H25.87Z"/></g></g></svg>